<svg xmlns="http://www.w3.org/2000/svg" width="26.925" height="26.925" viewBox="0 0 26.925 26.925"><circle cx="13.462" cy="13.462" r="13.462" transform="translate(0 0)" fill="#eaeaea"/><g transform="translate(6.546 7.024)"><path d="M6.38,3h6.761a3.38,3.38,0,0,1,3.38,3.38v6.761a3.38,3.38,0,0,1-3.38,3.38H6.38A3.38,3.38,0,0,1,3,13.141V6.38A3.38,3.38,0,0,1,6.38,3Z" transform="translate(-3 -3)" fill="none" stroke="#4c4c4c" stroke-linecap="round" stroke-linejoin="round" stroke-width="1.2"/><path d="M17.444,14.243a2.7,2.7,0,1,1-2.278-2.278A2.7,2.7,0,0,1,17.444,14.243Z" transform="translate(-7.979 -7.908)" fill="none" stroke="#4c4c4c" stroke-linecap="round" stroke-linejoin="round" stroke-width="1.2"/><path d="M26.25,9.75h0" transform="translate(-15.771 -6.708)" fill="none" stroke="#4c4c4c" stroke-linecap="round" stroke-linejoin="round" stroke-width="1.2"/></g></svg>