<svg xmlns="http://www.w3.org/2000/svg" width="26.925" height="26.925" viewBox="0 0 26.925 26.925"><rect width="26.925" height="26.925" rx="13.462" transform="translate(0)" fill="#eaeaea"/><g transform="translate(7.067 6.482)"><g transform="translate(0.682 0.682)"><path d="M15.274,9.137a6.139,6.139,0,0,1-9.2,5.322l-2.4.133.365-2.024A6.138,6.138,0,1,1,15.274,9.137Zm0,0" transform="translate(-3 -3)" fill="#eaeaea"/></g><path d="M13.646,4A6.812,6.812,0,0,0,2.924,12.213L2,15.638l3.569-.844a6.821,6.821,0,0,0,3.255.831h0A6.813,6.813,0,0,0,13.646,4ZM8.824,14.261a5.5,5.5,0,0,1-2.6-.663l-.458-.25-.509.12-1.343.317.328-1.217.149-.546-.285-.49a5.448,5.448,0,1,1,4.72,2.73Zm0,0" transform="translate(-2 -2)" fill="#4c4c4c"/><path d="M13.73,12.953a1.71,1.71,0,0,1-1.148.807c-.314.029-.607.141-2.043-.424a6.974,6.974,0,0,1-2.909-2.57,3.3,3.3,0,0,1-.693-1.758,1.912,1.912,0,0,1,.594-1.42.628.628,0,0,1,.455-.213c.112,0,.226,0,.325.005.123,0,.256.011.384.293.152.336.482,1.177.525,1.263a.309.309,0,0,1,.013.3,1.233,1.233,0,0,1-.168.285c-.085.1-.178.221-.256.3s-.173.178-.075.349a5.065,5.065,0,0,0,.946,1.177,4.62,4.62,0,0,0,1.369.844c.17.085.269.072.368-.043s.426-.5.541-.666.226-.141.381-.085.994.469,1.164.554.282.128.325.2A1.426,1.426,0,0,1,13.73,12.953Zm0,0" transform="translate(-3.571 -3.71)" fill="#4c4c4c"/></g></svg>